<svg xmlns="http://www.w3.org/2000/svg" width="1080" height="1350" viewBox="0 0 1080 1350"><rect width="1080" height="1350" fill="#f4f0df"/><rect x="30" y="30" width="1020" height="1290" fill="none" stroke="#080808" stroke-width="4"/><rect x="30" y="30" width="650" height="210" fill="#f4f0df" stroke="#080808" stroke-width="3"/><rect x="680" y="30" width="370" height="210" fill="#c9b6ff" stroke="#080808" stroke-width="3"/><text x="60" y="82" font-size="24" font-weight="900">MELBOURNE DESIGN WEEK 2026</text><text x="60" y="154" font-size="58" font-weight="900">WORKDAY LUNCH CATCH-UPS</text><text x="705" y="94" font-size="34" font-weight="900">18-22 MAY</text><text x="705" y="150" font-size="25" font-weight="900">CBD / FED SQUARE / PRAHRAN</text><rect x="60" y="255" width="960" height="42" fill="#173cff"/><text x="75" y="285" font-size="24" font-weight="900" fill="white">LOW TRAVEL / HIGH SIGNAL / DESIGN THE WORLD YOU WANT</text><rect x="60" y="310" width="150" height="118" fill="#080808"/><text x="78" y="380" font-size="40" font-weight="900" fill="#f4f0df">MON</text><rect x="210" y="310" width="530" height="118" fill="#f4f0df" stroke="#080808" stroke-width="2"/><text x="232" y="355" font-size="34" font-weight="900">AFDA + Stylecraft</text><text x="232" y="398" font-size="24" font-weight="700">379 Collins St, 12:15</text><rect x="740" y="310" width="280" height="118" fill="#f4f0df" stroke="#080808" stroke-width="2"/><text x="762" y="365" font-size="22" font-weight="900">STOP 1</text>
<rect x="60" y="430" width="150" height="118" fill="#080808"/><text x="78" y="500" font-size="40" font-weight="900" fill="#f4f0df">TUE</text><rect x="210" y="430" width="530" height="118" fill="#f4f0df" stroke="#080808" stroke-width="2"/><text x="232" y="475" font-size="34" font-weight="900">Industrial Design lunch talk</text><text x="232" y="518" font-size="24" font-weight="700">Ian Potter Centre, 12:30</text><rect x="740" y="430" width="280" height="118" fill="#c9b6ff" stroke="#080808" stroke-width="2"/><text x="762" y="485" font-size="22" font-weight="900">STOP 2</text>
<rect x="60" y="550" width="150" height="118" fill="#080808"/><text x="78" y="620" font-size="40" font-weight="900" fill="#f4f0df">WED</text><rect x="210" y="550" width="530" height="118" fill="#f4f0df" stroke="#080808" stroke-width="2"/><text x="232" y="595" font-size="34" font-weight="900">Interior Design lunch talk</text><text x="232" y="638" font-size="24" font-weight="700">Ian Potter Centre, 12:30</text><rect x="740" y="550" width="280" height="118" fill="#f4f0df" stroke="#080808" stroke-width="2"/><text x="762" y="605" font-size="22" font-weight="900">STOP 3</text>
<rect x="60" y="670" width="150" height="118" fill="#080808"/><text x="78" y="740" font-size="40" font-weight="900" fill="#f4f0df">THU</text><rect x="210" y="670" width="530" height="118" fill="#f4f0df" stroke="#080808" stroke-width="2"/><text x="232" y="715" font-size="34" font-weight="900">Edwin Fox restoration</text><text x="232" y="758" font-size="24" font-weight="700">Prahran, 13:00-16:00, ticketed</text><rect x="740" y="670" width="280" height="118" fill="#c9b6ff" stroke="#080808" stroke-width="2"/><text x="762" y="725" font-size="22" font-weight="900">STOP 4</text>
<rect x="60" y="790" width="150" height="118" fill="#080808"/><text x="78" y="860" font-size="40" font-weight="900" fill="#f4f0df">FRI</text><rect x="210" y="790" width="530" height="118" fill="#f4f0df" stroke="#080808" stroke-width="2"/><text x="232" y="835" font-size="34" font-weight="900">MUJI, Made.</text><text x="232" y="878" font-size="24" font-weight="700">44 Glasshouse Rd, 12:15</text><rect x="740" y="790" width="280" height="118" fill="#f4f0df" stroke="#080808" stroke-width="2"/><text x="762" y="845" font-size="22" font-weight="900">STOP 5</text>
<rect x="60" y="910" width="150" height="118" fill="#080808"/><text x="78" y="980" font-size="40" font-weight="900" fill="#f4f0df">ALT</text><rect x="210" y="910" width="530" height="118" fill="#f4f0df" stroke="#080808" stroke-width="2"/><text x="232" y="955" font-size="34" font-weight="900">A State of Matter</text><text x="232" y="998" font-size="24" font-weight="700">Room 1/358 Lonsdale St</text><rect x="740" y="910" width="280" height="118" fill="#c9b6ff" stroke="#080808" stroke-width="2"/><text x="762" y="965" font-size="22" font-weight="900">STOP 6</text>
<rect x="60" y="1030" width="150" height="118" fill="#080808"/><text x="78" y="1100" font-size="40" font-weight="900" fill="#f4f0df">RULE</text><rect x="210" y="1030" width="530" height="118" fill="#f4f0df" stroke="#080808" stroke-width="2"/><text x="232" y="1075" font-size="34" font-weight="900">Only add these if weekends overflow</text><text x="232" y="1118" font-size="24" font-weight="700">Protect energy</text><rect x="740" y="1030" width="280" height="118" fill="#f4f0df" stroke="#080808" stroke-width="2"/><text x="762" y="1085" font-size="22" font-weight="900">STOP 7</text><rect x="60" y="1192" width="480" height="72" fill="#c9ff00" stroke="#080808" stroke-width="3"/><text x="80" y="1238" font-size="24" font-weight="900">NOTEBOOK: OBJECT / MATERIAL / MEMORY</text><rect x="540" y="1192" width="480" height="72" fill="#080808" stroke="#080808" stroke-width="3"/><text x="560" y="1238" font-size="24" font-weight="900" fill="#f4f0df">PERSONAL ROUTE, NOT OFFICIAL ARTWORK</text></svg>